<svg version="1.1" id="Layer_1" xmlns="http://www.w3.org/2000/svg" xmlns:xlink="http://www.w3.org/1999/xlink" x="0px" y="0px"
	 width="150" height="95" viewBox="0 0 462 232" enable-background="new 0 0 462 232" xml:space="preserve">
<path fill="#FEFEFE" opacity="1.000000" stroke="none" 
	d="
M337.000000,233.000000 
	C224.666687,233.000000 112.833374,233.000000 1.000045,233.000000 
	C1.000030,155.666702 1.000030,78.333405 1.000015,1.000076 
	C154.999939,1.000051 308.999878,1.000051 462.999878,1.000025 
	C462.999908,78.333260 462.999908,155.666519 462.999939,232.999878 
	C421.166656,233.000000 379.333344,233.000000 337.000000,233.000000 
M336.175110,76.761086 
	C337.574707,85.850899 342.690857,88.080544 353.833923,84.347496 
	C353.984436,82.953430 354.141724,81.496613 354.974762,80.056671 
	C355.420105,79.989120 355.865448,79.921577 356.826630,80.267159 
	C361.648529,86.617912 368.191986,86.490570 375.165771,85.390678 
	C379.044891,84.778870 381.680634,83.518303 381.911133,79.001320 
	C382.422668,78.940857 382.934204,78.880386 383.902069,79.289711 
	C388.116180,86.367218 394.785309,86.658539 401.785980,85.526642 
	C407.889709,84.539780 408.009003,84.136459 406.606689,77.952629 
	C403.418152,77.952629 400.244629,78.237465 397.170715,77.808556 
	C395.987091,77.643410 394.237030,75.922096 394.140900,74.791153 
	C393.961151,72.676659 394.800873,70.475525 395.216461,68.310448 
	C396.770020,68.868301 398.323547,69.426163 399.726562,70.493614 
	C400.155365,70.861122 400.584198,71.228622 401.824127,71.809380 
	C403.211273,71.733353 404.598450,71.657326 406.724304,71.615005 
	C407.200012,70.341919 407.675720,69.068832 408.151398,67.795746 
	C408.692200,67.782265 409.232971,67.768784 409.773743,67.755302 
	C410.002045,70.578995 410.240997,73.401878 410.456604,76.226540 
	C411.030579,83.746544 414.278351,86.587914 421.819916,85.948502 
	C423.925262,85.769997 425.995422,85.176201 428.018311,84.785164 
	C428.018311,82.342682 428.018311,80.261108 428.018311,78.209457 
	C421.156128,77.696838 421.145233,77.678604 421.982300,68.258125 
	C423.850189,68.106102 425.774445,67.949493 427.773865,67.786766 
	C427.773865,65.119560 427.773865,62.724190 427.773865,60.217018 
	C425.616577,60.020252 423.703522,59.845760 421.822601,59.674202 
	C421.690338,57.749081 421.578400,56.119617 421.449341,54.241127 
	C418.332489,54.241127 415.407806,54.241127 412.483154,54.241127 
	C412.795288,54.621586 413.107422,55.002041 413.419556,55.382500 
	C410.942657,57.690865 408.465759,59.999229 405.335175,61.878887 
	C400.826843,61.497719 396.042877,60.015934 391.890381,61.055767 
	C388.010132,62.027431 384.799988,65.675163 381.311676,68.133263 
	C380.637695,63.395458 376.816010,60.868221 371.700806,60.194099 
	C365.604828,59.390724 360.205994,60.869698 355.585876,66.032059 
	C355.071075,66.019249 354.556244,66.006439 353.833557,65.146332 
	C353.833557,63.547634 353.833557,61.948933 353.833557,60.259739 
	C351.379761,60.032703 349.475128,59.856483 347.609375,59.683857 
	C347.374817,57.663391 347.173340,55.927975 346.965942,54.141846 
	C343.852325,54.141846 341.056305,54.141846 338.273376,54.141846 
	C336.779541,57.844437 335.341980,61.407505 333.157928,64.980995 
	C332.665375,65.052689 332.172821,65.124390 331.168427,64.763657 
	C327.488708,63.169552 323.930939,60.722313 320.101593,60.174984 
	C313.865997,59.283730 308.727081,62.206284 305.389038,68.200081 
	C304.264404,65.013748 303.947815,61.073189 302.438812,60.546051 
	C300.103882,59.730381 296.954559,61.245945 295.137848,61.587399 
	C293.196838,60.898155 291.915253,60.094810 290.604614,60.044243 
	C286.961334,59.903690 283.306000,60.076008 279.895325,59.367420 
	C278.893768,52.573444 276.674011,49.695087 270.350983,49.283840 
	C262.600922,48.779793 254.793137,49.163689 245.672424,49.163689 
	C250.877823,61.485886 250.984573,73.489914 245.672882,85.699677 
	C253.510574,85.699677 260.065430,85.699677 266.734802,85.699677 
	C266.734802,83.120720 266.734802,80.850441 266.734802,78.421951 
	C265.223480,78.094490 263.838440,77.794388 262.565308,77.518539 
	C262.565308,75.633774 262.565308,74.013191 262.565308,72.274940 
	C269.214905,71.316368 277.465820,73.683212 280.019440,63.263203 
	C280.676056,64.800690 281.628448,66.283287 281.926117,67.887390 
	C282.498322,70.970917 283.132935,74.152420 282.925568,77.238449 
	C282.740082,79.998512 281.456482,82.684792 280.523773,85.858353 
	C287.164520,85.858353 292.456604,85.858353 297.961243,85.858353 
	C297.961243,83.244781 297.961243,80.793457 297.961243,78.335251 
	C296.584290,78.073364 295.324829,77.833824 294.132263,77.607010 
	C293.538513,68.431427 294.536163,67.633865 305.762909,68.030899 
	C304.742889,79.199020 307.332275,83.769516 315.729858,85.623344 
	C324.293762,87.513901 330.657684,84.105682 334.099152,76.115860 
	C334.722534,76.080612 335.345886,76.045364 336.175110,76.761086 
M329.175964,113.762054 
	C326.083618,108.542366 320.567200,106.340233 313.788544,107.619423 
	C306.371979,109.019005 302.746307,113.346443 302.846710,120.679108 
	C302.946442,127.963585 306.722900,132.242737 314.275665,133.289185 
	C320.623871,134.168732 326.115753,132.623260 330.443359,127.189110 
	C330.982391,127.458740 331.521454,127.728378 332.270782,128.844864 
	C332.270782,130.424988 332.270782,132.005112 332.270782,133.784653 
	C337.429535,133.784653 342.108521,133.784653 347.650848,133.676208 
	C348.228851,133.630692 348.806854,133.585190 350.256042,133.551590 
	C354.348022,133.628815 358.440033,133.706024 363.509979,133.887283 
	C364.163818,133.853271 364.817688,133.819260 366.322601,133.582199 
	C370.575806,133.582199 374.829010,133.582199 380.373108,133.582199 
	C379.356506,130.042145 378.346252,127.418571 377.892853,124.702049 
	C377.407684,121.795273 377.535248,118.792099 377.240540,115.846489 
	C376.497742,108.422104 370.731476,105.284409 364.045074,108.650047 
	C362.766388,109.293694 361.603485,110.167404 360.322571,110.975723 
	C355.578247,105.874641 350.511444,106.809921 346.190125,109.417816 
	C341.508820,105.610481 336.894958,107.983955 332.526764,107.352966 
	C332.337189,110.064514 332.199402,112.035469 331.293671,114.015221 
	C330.782837,114.045532 330.272003,114.075844 329.175964,113.762054 
M283.337341,175.758743 
	C283.379791,175.135040 283.350555,174.496613 283.475342,173.889847 
	C285.603058,163.543640 280.019257,154.415955 270.014496,153.362518 
	C262.685364,152.590820 255.209610,153.211334 246.408356,153.211334 
	C251.816330,165.559464 251.594498,177.542618 246.431931,190.009003 
	C252.157913,190.009003 256.454437,189.742081 260.706848,190.061859 
	C271.106201,190.843903 279.846924,188.769562 284.696533,178.129272 
	C287.470520,188.302719 293.489899,191.679413 304.765533,189.387253 
	C311.257080,188.067627 311.257080,188.067627 310.220062,181.238678 
	C305.555115,180.701355 299.900177,184.766602 296.507294,177.795197 
	C301.402100,177.795197 306.296906,177.795197 311.152222,177.795197 
	C311.502808,167.424896 305.920441,162.625198 296.173035,164.155060 
	C289.128845,165.260635 285.677887,169.763931 283.337341,175.758743 
M37.978825,124.676697 
	C39.246021,133.697861 40.069038,142.812180 41.934265,151.707947 
	C43.209030,157.787628 45.937496,163.562485 47.365078,169.829514 
	C42.136463,173.142532 36.907845,176.455551 31.679230,179.768555 
	C32.177906,180.742416 32.676582,181.716278 33.175262,182.690140 
	C39.019115,179.597229 44.414852,175.540649 50.614746,172.451981 
	C57.110706,183.046066 64.919037,192.420273 74.910324,199.994736 
	C109.123802,225.932205 155.078522,226.407181 189.022507,200.081757 
	C197.824600,193.255203 204.713867,183.962250 213.430771,175.951233 
	C217.866943,176.266800 222.300247,176.710251 226.741257,176.809265 
	C227.871490,176.834488 229.026108,175.766052 230.169540,175.200134 
	C229.004395,174.553207 227.895294,173.504913 226.663803,173.332886 
	C222.590179,172.763824 218.472366,172.510956 214.542374,171.379974 
	C220.279068,161.028000 223.960831,149.965363 226.558624,137.873871 
	C227.714798,135.533676 229.095413,133.273499 229.966141,130.831528 
	C230.899185,128.214783 229.814468,126.688881 226.577728,126.133644 
	C226.579758,105.508575 220.608994,86.827248 208.599106,70.020760 
	C178.338394,27.674292 117.467644,18.352106 75.940384,49.754963 
	C60.930698,61.105259 50.363033,75.775024 42.830471,92.532616 
	C41.631397,92.702644 40.432327,92.872673 40.663185,92.839943 
	C38.525333,90.751923 37.098835,89.358681 35.975304,88.261345 
	C34.983990,86.541237 34.073997,84.962234 32.726116,82.623421 
	C35.872459,78.314140 29.054737,79.833252 27.870884,76.973953 
	C26.349426,79.057350 25.234533,80.584023 23.963610,82.324356 
	C25.682589,83.470673 27.151403,84.450165 28.945875,85.646828 
	C24.311703,90.056435 29.882010,89.501915 31.384029,90.622353 
	C31.207663,91.967575 31.084995,92.903206 30.931494,94.074020 
	C33.029530,94.564018 34.900803,95.001053 36.765934,95.436653 
	C35.556019,100.640419 39.250961,98.757294 41.596680,99.818436 
	C40.389854,106.237564 39.183029,112.656693 37.261902,119.413536 
	C34.703041,119.308975 32.142502,119.109276 29.586279,119.154366 
	C28.754398,119.169037 27.933794,119.822990 27.108036,120.184555 
	C27.554764,120.940392 27.840242,121.912163 28.489397,122.396919 
	C29.285189,122.991165 30.385235,123.177971 31.954689,123.766129 
	C29.194176,126.065453 26.827776,127.847824 24.719566,129.895966 
	C23.992411,130.602402 23.908289,131.970749 23.530430,133.036728 
	C24.662075,132.795944 26.031469,132.880783 26.884304,132.258118 
	C30.626883,129.525620 34.220051,126.588501 37.978825,124.676697 
M390.504028,168.384735 
	C390.585205,169.367645 390.374786,171.049377 390.793213,171.223953 
	C394.443604,172.747055 393.181335,175.877457 392.980103,178.323181 
	C392.874146,179.611221 391.153931,180.766449 390.162598,181.981613 
	C389.204834,180.737198 387.517914,179.546738 387.421112,178.238617 
	C387.081512,173.648804 387.289307,169.018494 387.289307,163.994095 
	C379.295502,163.994095 371.677307,163.923355 364.063538,164.074417 
	C362.986938,164.095764 361.931793,165.198273 360.532257,165.989456 
	C354.026703,163.215103 350.026520,163.552963 347.165466,167.400681 
	C343.968719,171.699783 343.656555,182.303711 347.196014,186.369400 
	C348.761353,188.167496 351.595184,189.653397 353.930084,189.772415 
	C356.392944,189.897964 358.947479,188.224716 362.129669,187.101685 
	C361.478455,188.709702 361.163696,190.753464 360.523865,190.860901 
	C356.423492,191.549347 352.251709,191.812836 348.116882,192.214722 
	C348.116882,194.223450 348.116882,196.439362 348.116882,198.949295 
	C352.275726,199.318848 356.073669,200.022263 359.849152,199.917343 
	C368.281403,199.683029 371.923462,195.869659 372.136322,187.501602 
	C372.254730,182.845352 372.159943,178.183868 372.200623,173.525085 
	C372.204590,173.071075 372.486389,172.619476 372.605591,172.266418 
	C373.989471,172.266418 375.251221,172.266418 376.483643,172.266418 
	C378.223846,190.639618 380.502838,192.817688 392.428162,187.737076 
	C392.380737,188.226471 392.333313,188.715881 392.285889,189.205276 
	C396.588379,189.561340 400.890900,189.917404 405.676300,190.313431 
	C405.676300,187.713257 406.368011,185.481552 405.556854,184.204025 
	C401.995056,178.594254 404.097137,172.498428 403.491699,166.660431 
	C403.408386,165.857101 403.296143,165.056763 403.165161,163.994003 
	C399.862518,163.994003 396.700226,164.197617 393.577057,163.935516 
	C390.581696,163.684158 390.285797,165.263901 390.504028,168.384735 
M249.753113,126.133324 
	C249.753113,128.533951 249.753113,130.934570 249.753113,133.254349 
	C257.188629,133.254349 264.094635,133.254349 271.007751,133.254349 
	C271.007751,130.514267 271.007751,128.100525 271.007751,125.670021 
	C268.951233,125.440155 267.197571,125.244148 265.395081,125.042671 
	C265.395081,122.478638 265.395081,120.195496 265.395081,117.727562 
	C267.679840,117.525269 269.770020,117.340210 271.901917,117.151459 
	C271.901917,115.504936 271.901917,114.087723 271.901917,112.552605 
	C269.572449,112.342751 267.504181,112.156418 265.418762,111.968544 
	C265.418762,109.318954 265.418762,107.048790 265.418762,104.904472 
	C270.646942,102.539978 269.062439,107.470291 270.154358,109.098206 
	C272.726776,109.098206 275.008850,109.098206 277.425842,109.098206 
	C277.425842,104.775452 277.425842,100.717194 277.425842,96.471527 
	C268.062866,96.471527 259.007507,96.471527 249.106552,96.471527 
	C249.591873,99.289726 249.379807,102.146179 250.590363,104.137993 
	C252.446030,107.191216 253.174347,122.519722 250.854111,125.404900 
	C250.770569,125.508797 250.541382,125.495575 249.753113,126.133324 
M330.454407,181.854813 
	C329.831696,184.422546 329.209015,186.990280 328.553436,189.693634 
	C334.263672,189.693634 338.832458,189.693634 343.835327,189.693634 
	C342.763855,182.599808 342.107483,175.781525 340.602417,169.156036 
	C339.593140,164.713043 334.895691,163.079330 330.062561,164.653107 
	C328.677185,165.104233 326.469574,166.428909 326.078156,166.009583 
	C322.032806,161.676117 317.245422,165.230194 311.301147,163.249756 
	C315.749146,172.843292 314.651001,181.234421 312.165894,189.655060 
	C317.798126,189.655060 322.490356,189.655060 328.224365,189.655060 
	C327.157654,186.431290 325.989166,183.875153 325.521576,181.196640 
	C325.102234,178.794800 325.213867,176.218903 325.609894,173.804901 
	C325.730865,173.067673 327.556732,172.198593 328.624207,172.167862 
	C329.379333,172.146149 330.735687,173.358719 330.841431,174.151276 
	C331.145996,176.435318 330.952728,178.785736 330.454407,181.854813 
M432.166687,185.243378 
	C432.090302,183.820984 432.013885,182.398590 431.934662,180.923203 
	C420.833130,182.945053 419.379669,182.668106 417.855957,177.915863 
	C422.911774,177.915863 427.811615,177.915863 432.672394,177.915863 
	C433.110962,168.385422 429.306519,164.105774 420.779816,163.988388 
	C411.731842,163.863831 406.236664,169.081528 406.519867,177.528229 
	C406.754974,184.540482 410.514252,189.036896 417.861115,189.709656 
	C422.831238,190.164749 428.373962,191.155136 432.166687,185.243378 
M294.856842,125.559326 
	C291.917694,125.718681 291.467102,124.124817 291.498596,121.525391 
	C291.587860,114.153999 297.261780,115.743111 302.391602,115.095039 
	C301.738739,112.464577 301.671173,108.427551 300.441162,108.035240 
	C298.022797,107.263908 294.958435,108.518112 291.895477,108.973885 
	C288.641205,105.101089 283.746124,108.238968 279.977203,107.320663 
	C279.977203,116.216827 279.977203,124.625885 279.977203,133.264511 
	C284.776459,133.264511 290.177032,133.264511 295.701660,133.264511 
	C295.774384,131.804123 295.892883,130.651611 295.871857,129.501663 
	C295.850800,128.349396 295.690460,127.199692 294.856842,125.559326 
z"/>
<path fill="#D43131" opacity="1.000000" stroke="none" 
	d="
M225.973694,138.325562 
	C223.960831,149.965363 220.279068,161.028000 214.282623,172.000061 
	C213.509171,173.680832 212.995468,174.741516 212.481766,175.802185 
	C204.713867,183.962250 197.824600,193.255203 189.022507,200.081757 
	C155.078522,226.407181 109.123802,225.932205 74.910324,199.994736 
	C64.919037,192.420273 57.110706,183.046066 50.304485,171.901001 
	C49.334827,170.724579 48.675430,170.099106 48.016037,169.473633 
	C45.937496,163.562485 43.209030,157.787628 41.934265,151.707947 
	C40.069038,142.812180 39.246021,133.697861 37.962814,123.814140 
	C37.956604,121.659660 37.966408,120.367744 37.976204,119.075821 
	C39.183029,112.656693 40.389854,106.237564 41.718132,99.112213 
	C42.347927,96.648430 42.856262,94.890862 43.364601,93.133301 
	C50.363033,75.775024 60.930698,61.105259 75.940384,49.754963 
	C117.467644,18.352106 178.338394,27.674292 208.599106,70.020760 
	C220.608994,86.827248 226.579758,105.508575 226.468201,126.880081 
	C226.230347,131.192856 226.102020,134.759216 225.973694,138.325562 
M165.020218,93.942833 
	C164.825470,94.222260 164.566895,94.416618 163.599106,94.244698 
	C157.281357,101.724464 150.875092,109.131821 144.676712,116.709221 
	C140.479218,121.840584 136.573990,127.211014 131.939514,132.788132 
	C127.382950,138.449112 122.826393,144.110092 117.848709,149.971573 
	C117.278770,150.692108 116.708839,151.412643 115.488739,152.530136 
	C103.769051,166.817291 92.049362,181.104446 80.325005,195.397293 
	C112.140358,219.446579 158.486374,218.271988 188.199753,192.303131 
	C194.209442,187.050797 198.815231,180.192139 204.543701,173.674225 
	C204.762634,173.099075 204.981567,172.523926 205.831467,171.732941 
	C211.185867,164.358948 214.767822,156.222748 216.719879,146.738708 
	C217.691681,139.853958 218.663483,132.969223 219.783966,125.235687 
	C219.114441,99.645752 209.865234,77.979332 190.943558,60.635147 
	C189.785843,62.320435 189.064087,63.570045 188.153793,64.662575 
	C183.652390,70.065048 179.101151,75.425987 174.037125,81.118919 
	C173.522552,81.955971 173.007965,82.793022 171.922836,83.909454 
	C169.950974,86.628006 167.979111,89.346558 166.004807,92.000946 
	C166.004807,92.000946 166.066177,92.019852 165.622910,91.640251 
	C165.414246,92.241768 165.205582,92.843285 165.020218,93.942833 
M48.005043,102.683418 
	C47.945217,103.149384 47.885391,103.615349 47.338871,104.547211 
	C46.660244,108.710548 45.981613,112.873886 45.158955,117.964912 
	C44.217087,133.729889 46.116165,148.947769 53.966011,163.693253 
	C54.557781,164.586838 55.149555,165.480408 55.869457,167.060898 
	C60.270340,176.362198 66.990807,183.787704 74.909332,190.992859 
	C87.134972,175.843781 99.136490,160.972427 111.678528,145.837906 
	C112.200272,145.002121 112.722023,144.166351 113.834488,142.998810 
	C118.067421,137.660904 122.300354,132.322998 127.087181,126.707024 
	C133.766113,118.520035 140.445038,110.333046 147.735764,101.871475 
	C149.630173,99.354187 151.524567,96.836906 153.918747,93.812271 
	C154.934631,92.592880 155.950516,91.373482 157.552856,89.811951 
	C159.585037,87.244194 161.617233,84.676437 164.157379,81.714363 
	C164.765579,80.855492 165.373764,79.996620 166.569382,78.784073 
	C168.588974,76.129517 170.608582,73.474960 172.974365,70.385681 
	C173.966675,69.243042 174.958984,68.100395 176.362305,66.406082 
	C177.727173,64.794350 179.092041,63.182617 180.771774,61.202011 
	C181.480194,60.334675 182.188629,59.467339 183.426529,58.082550 
	C185.447662,56.475945 184.949280,55.489346 182.963470,54.033119 
	C155.934479,34.212448 116.981880,32.570042 88.242477,49.847885 
	C72.051605,59.581665 60.404423,73.207176 51.964451,90.647186 
	C51.703148,91.746017 51.441849,92.844849 50.793392,94.630280 
	C49.936314,97.090515 49.079235,99.550743 48.005043,102.683418 
z"/>
<path fill="#040404" opacity="1.000000" stroke="none" 
	d="
M390.504089,167.951874 
	C390.285797,165.263901 390.581696,163.684158 393.577057,163.935516 
	C396.700226,164.197617 399.862518,163.994003 403.165161,163.994003 
	C403.296143,165.056763 403.408386,165.857101 403.491699,166.660431 
	C404.097137,172.498428 401.995056,178.594254 405.556854,184.204025 
	C406.368011,185.481552 405.676300,187.713257 405.676300,190.313431 
	C400.890900,189.917404 396.588379,189.561340 392.285889,189.205276 
	C392.333313,188.715881 392.380737,188.226471 392.428162,187.737076 
	C380.502838,192.817688 378.223846,190.639618 376.483643,172.266418 
	C375.251221,172.266418 373.989471,172.266418 372.605591,172.266418 
	C372.486389,172.619476 372.204590,173.071075 372.200623,173.525085 
	C372.159943,178.183868 372.254730,182.845352 372.136322,187.501602 
	C371.923462,195.869659 368.281403,199.683029 359.849152,199.917343 
	C356.073669,200.022263 352.275726,199.318848 348.116882,198.949295 
	C348.116882,196.439362 348.116882,194.223450 348.116882,192.214722 
	C352.251709,191.812836 356.423492,191.549347 360.523865,190.860901 
	C361.163696,190.753464 361.478455,188.709702 362.129669,187.101685 
	C358.947479,188.224716 356.392944,189.897964 353.930084,189.772415 
	C351.595184,189.653397 348.761353,188.167496 347.196014,186.369400 
	C343.656555,182.303711 343.968719,171.699783 347.165466,167.400681 
	C350.026520,163.552963 354.026703,163.215103 360.532257,165.989456 
	C361.931793,165.198273 362.986938,164.095764 364.063538,164.074417 
	C371.677307,163.923355 379.295502,163.994095 387.289307,163.994095 
	C387.289307,169.018494 387.081512,173.648804 387.421112,178.238617 
	C387.517914,179.546738 389.204834,180.737198 390.162598,181.981628 
	C391.153931,180.766449 392.874146,179.611221 392.980103,178.323181 
	C393.181335,175.877457 394.443604,172.747055 390.793213,171.223953 
	C390.374786,171.049377 390.585205,169.367645 390.504089,167.951874 
M357.555054,172.051331 
	C357.082611,174.922791 356.610138,177.794266 356.137665,180.665741 
	C357.716492,180.921738 359.777039,181.929596 360.780090,181.286942 
	C363.364563,179.631104 361.544281,173.068985 357.555054,172.051331 
z"/>
<path fill="#060606" opacity="1.000000" stroke="none" 
	d="
M283.999023,177.810379 
	C279.846924,188.769562 271.106201,190.843903 260.706848,190.061859 
	C256.454437,189.742081 252.157913,190.009003 246.431931,190.009003 
	C251.594498,177.542618 251.816330,165.559464 246.408356,153.211334 
	C255.209610,153.211334 262.685364,152.590820 270.014496,153.362518 
	C280.019257,154.415955 285.603058,163.543640 283.475342,173.889847 
	C283.350555,174.496613 283.379791,175.135040 283.666809,176.240845 
	C283.997192,177.085434 283.998108,177.447906 283.999023,177.810379 
M263.133698,166.667938 
	C263.133698,171.628555 263.133698,176.589172 263.133698,181.533401 
	C267.830353,182.924072 269.636047,181.335999 269.389221,176.818939 
	C269.189972,173.172318 269.201874,169.498749 269.385773,165.850540 
	C269.611298,161.377548 267.471802,160.303497 263.133698,161.382782 
	C263.133698,162.794189 263.133698,164.256119 263.133698,166.667938 
z"/>
<path fill="#0A0A0A" opacity="1.000000" stroke="none" 
	d="
M332.061615,114.006416 
	C332.199402,112.035469 332.337189,110.064514 332.526764,107.352966 
	C336.894958,107.983955 341.508820,105.610481 346.190125,109.417816 
	C350.511444,106.809921 355.578247,105.874641 360.322571,110.975723 
	C361.603485,110.167404 362.766388,109.293694 364.045074,108.650047 
	C370.731476,105.284409 376.497742,108.422104 377.240540,115.846489 
	C377.535248,118.792099 377.407684,121.795273 377.892853,124.702049 
	C378.346252,127.418571 379.356506,130.042145 380.373108,133.582199 
	C374.829010,133.582199 370.575806,133.582199 365.723999,133.278839 
	C365.669617,130.274384 366.418579,127.594337 366.699219,124.866119 
	C366.967590,122.257301 366.930573,119.576416 366.615967,116.977036 
	C366.537842,116.331482 364.850342,115.427223 363.935944,115.464325 
	C363.027740,115.501190 361.490479,116.488831 361.399139,117.208107 
	C361.088501,119.653946 361.142365,122.177757 361.342407,124.648697 
	C361.589874,127.705620 362.122559,130.739441 362.532013,133.783249 
	C358.440033,133.706024 354.348022,133.628815 349.708130,133.143692 
	C349.090790,130.481613 349.021332,128.227432 349.269104,125.731949 
	C349.906586,122.720497 350.389832,119.952087 350.419159,117.178879 
	C350.425537,116.573792 348.872833,115.621201 347.922058,115.440819 
	C347.149261,115.294197 345.490173,115.994217 345.446625,116.438530 
	C345.123474,119.737030 342.817230,123.437981 346.865723,126.501892 
	C346.814789,129.215042 346.801178,131.499847 346.787537,133.784653 
	C342.108521,133.784653 337.429535,133.784653 332.270782,133.784653 
	C332.270782,132.005112 332.270782,130.424988 332.305237,128.046860 
	C335.318359,122.726562 335.208038,117.472137 332.061615,114.006416 
z"/>
<path fill="#0C0C0C" opacity="1.000000" stroke="none" 
	d="
M333.471619,76.121681 
	C330.657684,84.105682 324.293762,87.513901 315.729858,85.623344 
	C307.332275,83.769516 304.742889,79.199020 305.762909,68.030899 
	C294.536163,67.633865 293.538513,68.431427 294.132263,77.607010 
	C295.324829,77.833824 296.584290,78.073364 297.961243,78.335251 
	C297.961243,80.793457 297.961243,83.244781 297.961243,85.858353 
	C292.456604,85.858353 287.164520,85.858353 280.523773,85.858353 
	C281.456482,82.684792 282.740082,79.998512 282.925568,77.238449 
	C283.132935,74.152420 282.498322,70.970917 281.926117,67.887390 
	C281.628448,66.283287 280.676056,64.800690 279.591522,63.151321 
	C279.327545,62.067871 279.491486,61.096302 279.655426,60.124733 
	C283.306000,60.076008 286.961334,59.903690 290.604614,60.044243 
	C291.915253,60.094810 293.196838,60.898155 295.137848,61.587399 
	C296.954559,61.245945 300.103882,59.730381 302.438812,60.546051 
	C303.947815,61.073189 304.264404,65.013748 305.389038,68.200081 
	C308.727081,62.206284 313.865997,59.283730 320.101593,60.174984 
	C323.930939,60.722313 327.488708,63.169552 331.480042,65.387192 
	C332.351624,69.381050 332.911621,72.751366 333.471619,76.121681 
M320.398773,77.947746 
	C320.965668,75.138855 321.532562,72.329964 322.099457,69.521072 
	C320.559875,69.218849 318.571442,68.165939 317.570496,68.764465 
	C315.197449,70.183495 316.689117,76.556221 320.398773,77.947746 
z"/>
<path fill="#090909" opacity="1.000000" stroke="none" 
	d="
M405.985596,71.581299 
	C404.598450,71.657326 403.211273,71.733353 401.403015,71.486542 
	C400.613647,70.770470 400.245361,70.377243 399.877106,69.984024 
	C398.323547,69.426163 396.770020,68.868301 395.216461,68.310440 
	C394.800873,70.475525 393.961151,72.676659 394.140900,74.791153 
	C394.237030,75.922096 395.987091,77.643410 397.170715,77.808556 
	C400.244629,78.237465 403.418152,77.952629 406.606689,77.952629 
	C408.009003,84.136459 407.889709,84.539780 401.785980,85.526642 
	C394.785309,86.658539 388.116180,86.367218 383.648438,78.641342 
	C382.706268,76.626511 382.017761,75.260040 381.496552,74.225616 
	C376.237732,74.225616 371.357178,74.225616 366.476624,74.225616 
	C366.263580,74.652054 366.050568,75.078484 365.837524,75.504921 
	C367.270752,76.337265 368.641022,77.701210 370.151642,77.880096 
	C372.549255,78.164017 375.048431,77.464668 377.489166,77.563560 
	C378.722961,77.613564 379.922791,78.501572 381.138000,79.010666 
	C381.680634,83.518303 379.044891,84.778870 375.165771,85.390678 
	C368.191986,86.490570 361.648529,86.617912 356.545349,79.651978 
	C356.294220,74.729713 356.324341,70.422630 356.354462,66.115540 
	C360.205994,60.869698 365.604828,59.390724 371.700806,60.194099 
	C376.816010,60.868221 380.637695,63.395458 381.311676,68.133263 
	C384.799988,65.675163 388.010132,62.027431 391.890381,61.055767 
	C396.042877,60.015934 400.826843,61.497719 405.660736,62.515968 
	C405.986053,65.962463 405.985809,68.771881 405.985596,71.581299 
z"/>
<path fill="#050505" opacity="1.000000" stroke="none" 
	d="
M279.775391,59.746078 
	C279.491486,61.096302 279.327545,62.067871 279.269836,63.415985 
	C277.465820,73.683212 269.214905,71.316368 262.565308,72.274940 
	C262.565308,74.013191 262.565308,75.633774 262.565308,77.518539 
	C263.838440,77.794388 265.223480,78.094490 266.734802,78.421951 
	C266.734802,80.850441 266.734802,83.120720 266.734802,85.699677 
	C260.065430,85.699677 253.510574,85.699677 245.672882,85.699677 
	C250.984573,73.489914 250.877823,61.485886 245.672424,49.163689 
	C254.793137,49.163689 262.600922,48.779793 270.350983,49.283840 
	C276.674011,49.695087 278.893768,52.573444 279.775391,59.746078 
M267.085754,59.722481 
	C265.816162,58.670486 264.546570,57.618492 262.619781,56.021919 
	C262.619781,60.063084 262.619781,62.446171 262.619781,64.770576 
	C266.664368,65.650986 267.225586,63.440701 267.085754,59.722481 
z"/>
<path fill="#0D0D0D" opacity="1.000000" stroke="none" 
	d="
M250.066589,125.835129 
	C250.541382,125.495575 250.770569,125.508797 250.854111,125.404900 
	C253.174347,122.519722 252.446030,107.191216 250.590363,104.137993 
	C249.379807,102.146179 249.591873,99.289726 249.106552,96.471527 
	C259.007507,96.471527 268.062866,96.471527 277.425842,96.471527 
	C277.425842,100.717194 277.425842,104.775452 277.425842,109.098206 
	C275.008850,109.098206 272.726776,109.098206 270.154358,109.098206 
	C269.062439,107.470291 270.646942,102.539978 265.418762,104.904472 
	C265.418762,107.048790 265.418762,109.318954 265.418762,111.968544 
	C267.504181,112.156418 269.572449,112.342751 271.901917,112.552605 
	C271.901917,114.087723 271.901917,115.504936 271.901917,117.151459 
	C269.770020,117.340210 267.679840,117.525269 265.395081,117.727562 
	C265.395081,120.195496 265.395081,122.478638 265.395081,125.042671 
	C267.197571,125.244148 268.951233,125.440155 271.007751,125.670021 
	C271.007751,128.100525 271.007751,130.514267 271.007751,133.254349 
	C264.094635,133.254349 257.188629,133.254349 249.753113,133.254349 
	C249.753113,130.934570 249.753113,128.533951 250.066589,125.835129 
z"/>
<path fill="#040404" opacity="1.000000" stroke="none" 
	d="
M330.704712,181.482452 
	C330.952728,178.785736 331.145996,176.435318 330.841431,174.151276 
	C330.735687,173.358719 329.379333,172.146149 328.624207,172.167862 
	C327.556732,172.198593 325.730865,173.067673 325.609894,173.804901 
	C325.213867,176.218903 325.102234,178.794800 325.521576,181.196640 
	C325.989166,183.875153 327.157654,186.431290 328.224365,189.655060 
	C322.490356,189.655060 317.798126,189.655060 312.165894,189.655060 
	C314.651001,181.234421 315.749146,172.843292 311.301147,163.249756 
	C317.245422,165.230194 322.032806,161.676117 326.078156,166.009583 
	C326.469574,166.428909 328.677185,165.104233 330.062561,164.653107 
	C334.895691,163.079330 339.593140,164.713043 340.602417,169.156036 
	C342.107483,175.781525 342.763855,182.599808 343.835327,189.693634 
	C338.832458,189.693634 334.263672,189.693634 328.553436,189.693634 
	C329.209015,186.990280 329.831696,184.422546 330.704712,181.482452 
z"/>
<path fill="#0B0B0B" opacity="1.000000" stroke="none" 
	d="
M329.880402,126.970558 
	C326.115753,132.623260 320.623871,134.168732 314.275665,133.289185 
	C306.722900,132.242737 302.946442,127.963585 302.846710,120.679108 
	C302.746307,113.346443 306.371979,109.019005 313.788544,107.619423 
	C320.567200,106.340233 326.083618,108.542366 329.566193,114.327103 
	C329.931061,118.918282 329.905731,122.944420 329.880402,126.970558 
M319.894806,121.290459 
	C319.893341,120.465378 320.204895,119.435936 319.826752,118.856796 
	C318.981293,117.561935 317.792114,116.491493 316.742981,115.329628 
	C315.804718,116.604988 314.734009,117.808586 313.987122,119.187607 
	C313.641510,119.825714 313.645813,120.953453 313.984985,121.600502 
	C314.711578,122.986511 315.759064,124.204292 316.675140,125.490974 
	C317.747009,124.362175 318.818909,123.233376 319.894806,121.290459 
z"/>
<path fill="#080808" opacity="1.000000" stroke="none" 
	d="
M284.347778,177.969818 
	C283.998108,177.447906 283.997192,177.085434 283.997681,176.451111 
	C285.677887,169.763931 289.128845,165.260635 296.173035,164.155060 
	C305.920441,162.625198 311.502808,167.424896 311.152222,177.795197 
	C306.296906,177.795197 301.402100,177.795197 296.507294,177.795197 
	C299.900177,184.766602 305.555115,180.701355 310.220032,181.238815 
	C311.257080,188.067627 311.257080,188.067627 304.765533,189.387253 
	C293.489899,191.679413 287.470520,188.302719 284.347778,177.969818 
z"/>
<path fill="#080808" opacity="1.000000" stroke="none" 
	d="
M432.164185,185.685425 
	C428.373962,191.155136 422.831238,190.164749 417.861115,189.709656 
	C410.514252,189.036896 406.754974,184.540482 406.519867,177.528229 
	C406.236664,169.081528 411.731842,163.863831 420.779816,163.988388 
	C429.306519,164.105774 433.110962,168.385422 432.672394,177.915863 
	C427.811615,177.915863 422.911774,177.915863 417.855957,177.915863 
	C419.379669,182.668106 420.833130,182.945053 431.934662,180.923203 
	C432.013885,182.398590 432.090302,183.820984 432.164185,185.685425 
z"/>
<path fill="#0F0F0F" opacity="1.000000" stroke="none" 
	d="
M406.354950,71.598152 
	C405.985809,68.771881 405.986053,65.962463 405.987610,62.730324 
	C408.465759,59.999229 410.942657,57.690865 413.419556,55.382500 
	C413.107422,55.002041 412.795288,54.621586 412.483154,54.241127 
	C415.407806,54.241127 418.332489,54.241127 421.449341,54.241127 
	C421.578400,56.119617 421.690338,57.749081 421.822601,59.674202 
	C423.703522,59.845760 425.616577,60.020252 427.773865,60.217018 
	C427.773865,62.724190 427.773865,65.119560 427.773865,67.786766 
	C425.774445,67.949493 423.850189,68.106102 421.982300,68.258125 
	C421.145233,77.678604 421.156128,77.696838 428.018311,78.209457 
	C428.018311,80.261108 428.018311,82.342682 428.018311,84.785164 
	C425.995422,85.176201 423.925262,85.769997 421.819916,85.948502 
	C414.278351,86.587914 411.030579,83.746544 410.456604,76.226540 
	C410.240997,73.401878 410.002045,70.578995 409.773743,67.755302 
	C409.232971,67.768784 408.692200,67.782265 408.151398,67.795746 
	C407.675720,69.068832 407.200012,70.341919 406.354950,71.598152 
z"/>
<path fill="#0A0A0A" opacity="1.000000" stroke="none" 
	d="
M354.298981,80.039810 
	C354.141724,81.496613 353.984436,82.953430 353.833923,84.347496 
	C342.690857,88.080544 337.574707,85.850899 336.204346,75.958755 
	C335.457184,71.761147 334.680817,68.365860 333.904419,64.970581 
	C335.341980,61.407505 336.779541,57.844437 338.273376,54.141846 
	C341.056305,54.141846 343.852325,54.141846 346.965942,54.141846 
	C347.173340,55.927975 347.374817,57.663391 347.609375,59.683857 
	C349.475128,59.856483 351.379761,60.032703 353.833557,60.259739 
	C353.833557,61.948933 353.833557,63.547634 353.778595,65.944221 
	C351.719788,67.376411 349.715942,68.010712 347.615326,68.675652 
	C346.581757,76.199348 346.592773,76.164101 353.032959,78.176788 
	C353.594208,78.352188 353.883392,79.398193 354.298981,80.039810 
z"/>
<path fill="#111111" opacity="1.000000" stroke="none" 
	d="
M295.223999,125.804092 
	C295.690460,127.199692 295.850800,128.349396 295.871857,129.501663 
	C295.892883,130.651611 295.774384,131.804123 295.701660,133.264511 
	C290.177032,133.264511 284.776459,133.264511 279.977203,133.264511 
	C279.977203,124.625885 279.977203,116.216827 279.977203,107.320663 
	C283.746124,108.238968 288.641205,105.101089 291.895477,108.973885 
	C294.958435,108.518112 298.022797,107.263908 300.441162,108.035240 
	C301.671173,108.427551 301.738739,112.464577 302.391602,115.095039 
	C297.261780,115.743111 291.587860,114.153999 291.498596,121.525391 
	C291.467102,124.124817 291.917694,125.718681 295.223999,125.804092 
z"/>
<path fill="#111111" opacity="1.000000" stroke="none" 
	d="
M43.097534,92.832962 
	C42.856262,94.890862 42.347927,96.648430 41.659336,98.682144 
	C39.250961,98.757294 35.556019,100.640419 36.765934,95.436653 
	C34.900803,95.001053 33.029530,94.564018 30.931494,94.074020 
	C31.084995,92.903206 31.207663,91.967575 31.384029,90.622353 
	C29.882010,89.501915 24.311703,90.056435 28.945875,85.646828 
	C27.151403,84.450165 25.682589,83.470673 23.963610,82.324356 
	C25.234533,80.584023 26.349426,79.057350 27.870884,76.973953 
	C29.054737,79.833252 35.872459,78.314140 32.726116,82.623421 
	C34.073997,84.962234 34.983990,86.541237 35.975304,88.261345 
	C37.098835,89.358681 38.525333,90.751923 40.663185,92.839943 
	C40.432327,92.872673 41.631397,92.702644 43.097534,92.832962 
z"/>
<path fill="#111111" opacity="1.000000" stroke="none" 
	d="
M37.619057,119.244675 
	C37.966408,120.367744 37.956604,121.659660 37.907097,123.338577 
	C34.220051,126.588501 30.626883,129.525620 26.884304,132.258118 
	C26.031469,132.880783 24.662075,132.795944 23.530430,133.036728 
	C23.908289,131.970749 23.992411,130.602402 24.719566,129.895966 
	C26.827776,127.847824 29.194176,126.065453 31.954689,123.766129 
	C30.385235,123.177971 29.285189,122.991165 28.489397,122.396919 
	C27.840242,121.912163 27.554764,120.940392 27.108036,120.184555 
	C27.933794,119.822990 28.754398,119.169037 29.586279,119.154366 
	C32.142502,119.109276 34.703041,119.308975 37.619057,119.244675 
z"/>
<path fill="#E2E2E2" opacity="1.000000" stroke="none" 
	d="
M354.636871,80.048241 
	C353.883392,79.398193 353.594208,78.352188 353.032959,78.176788 
	C346.592773,76.164101 346.581757,76.199348 347.615326,68.675652 
	C349.715942,68.010712 351.719788,67.376411 353.882538,66.367874 
	C354.556244,66.006439 355.071075,66.019249 355.970154,66.073799 
	C356.324341,70.422630 356.294220,74.729713 356.287415,79.445419 
	C355.865448,79.921577 355.420105,79.989120 354.636871,80.048241 
z"/>
<path fill="#E5E5E5" opacity="1.000000" stroke="none" 
	d="
M363.020996,133.835266 
	C362.122559,130.739441 361.589874,127.705620 361.342407,124.648697 
	C361.142365,122.177757 361.088501,119.653946 361.399139,117.208107 
	C361.490479,116.488831 363.027740,115.501190 363.935944,115.464325 
	C364.850342,115.427223 366.537842,116.331482 366.615967,116.977036 
	C366.930573,119.576416 366.967590,122.257301 366.699219,124.866119 
	C366.418579,127.594337 365.669617,130.274384 365.298462,133.380371 
	C364.817688,133.819260 364.163818,133.853271 363.020996,133.835266 
z"/>
<path fill="#131212" opacity="1.000000" stroke="none" 
	d="
M47.690556,169.651581 
	C48.675430,170.099106 49.334827,170.724579 50.035919,171.704178 
	C44.414852,175.540649 39.019115,179.597229 33.175262,182.690140 
	C32.676582,181.716278 32.177906,180.742416 31.679230,179.768555 
	C36.907845,176.455551 42.136463,173.142532 47.690556,169.651581 
z"/>
<path fill="#1A1919" opacity="1.000000" stroke="none" 
	d="
M212.956268,175.876709 
	C212.995468,174.741516 213.509171,173.680832 214.197205,172.378448 
	C218.472366,172.510956 222.590179,172.763824 226.663803,173.332886 
	C227.895294,173.504913 229.004395,174.553207 230.169540,175.200134 
	C229.026108,175.766052 227.871490,176.834488 226.741257,176.809265 
	C222.300247,176.710251 217.866943,176.266800 212.956268,175.876709 
z"/>
<path fill="#F1EDED" opacity="1.000000" stroke="none" 
	d="
M381.524567,79.005997 
	C379.922791,78.501572 378.722961,77.613564 377.489166,77.563560 
	C375.048431,77.464668 372.549255,78.164017 370.151642,77.880096 
	C368.641022,77.701210 367.270752,76.337265 365.837524,75.504921 
	C366.050568,75.078484 366.263580,74.652054 366.476624,74.225616 
	C371.357178,74.225616 376.237732,74.225616 381.496552,74.225616 
	C382.017761,75.260040 382.706268,76.626511 383.420288,78.406448 
	C382.934204,78.880386 382.422668,78.940857 381.524567,79.005997 
z"/>
<path fill="#EBEBEB" opacity="1.000000" stroke="none" 
	d="
M330.161865,127.079834 
	C329.905731,122.944420 329.931061,118.918282 329.858795,114.499146 
	C330.272003,114.075844 330.782837,114.045532 331.677643,114.010818 
	C335.208038,117.472137 335.318359,122.726562 332.200104,127.623428 
	C331.521454,127.728378 330.982391,127.458740 330.161865,127.079834 
z"/>
<path fill="#0F0F0F" opacity="1.000000" stroke="none" 
	d="
M226.266159,138.099716 
	C226.102020,134.759216 226.230347,131.192856 226.597107,127.295151 
	C229.814468,126.688881 230.899185,128.214783 229.966141,130.831528 
	C229.095413,133.273499 227.714798,135.533676 226.266159,138.099716 
z"/>
<path fill="#C9C9C9" opacity="1.000000" stroke="none" 
	d="
M333.531189,64.975784 
	C334.680817,68.365860 335.457184,71.761147 336.101410,75.583275 
	C335.345886,76.045364 334.722534,76.080612 333.785400,76.118774 
	C332.911621,72.751366 332.351624,69.381050 331.735962,65.603409 
	C332.172821,65.124390 332.665375,65.052689 333.531189,64.975784 
z"/>
<path fill="#9B9B9B" opacity="1.000000" stroke="none" 
	d="
M347.219177,133.730438 
	C346.801178,131.499847 346.814789,129.215042 347.207397,126.487503 
	C348.041534,126.020943 348.496674,125.997101 348.951843,125.973267 
	C349.021332,128.227432 349.090790,130.481613 349.272552,133.137726 
	C348.806854,133.585190 348.228851,133.630692 347.219177,133.730438 
z"/>
<path fill="#0F0F0F" opacity="1.000000" stroke="none" 
	d="
M399.801819,70.238815 
	C400.245361,70.377243 400.613647,70.770470 400.997467,71.379913 
	C400.584198,71.228622 400.155365,70.861122 399.801819,70.238815 
z"/>
<path fill="#FDFCFC" opacity="1.000000" stroke="none" 
	d="
M204.068268,174.074051 
	C198.815231,180.192139 194.209442,187.050797 188.199753,192.303131 
	C158.486374,218.271988 112.140358,219.446579 80.325005,195.397293 
	C92.049362,181.104446 103.769051,166.817291 116.091667,152.571075 
	C122.262215,156.712631 127.789124,160.871078 133.441528,164.851303 
	C134.285675,165.445679 135.719269,165.202972 136.880173,165.347504 
	C136.267303,164.225571 135.925659,162.747528 134.996979,162.040268 
	C129.496780,157.851379 123.860405,153.841278 118.269836,149.771057 
	C122.826393,144.110092 127.382950,138.449112 132.550751,132.885651 
	C135.571335,134.726120 137.859924,136.674347 140.411453,138.175674 
	C150.216171,143.944809 161.287369,147.937653 167.793900,158.254562 
	C168.243088,158.966812 169.749817,159.012115 170.764725,159.367584 
	C171.006729,158.990616 171.248718,158.613647 171.490707,158.236679 
	C169.603088,155.880981 167.715454,153.525269 166.007019,150.966095 
	C166.285889,150.611832 166.385559,150.461044 166.883438,150.359650 
	C170.341202,151.170502 173.379272,152.035400 176.463974,152.675644 
	C190.396713,155.567474 203.893158,155.110336 216.366669,147.233780 
	C214.767822,156.222748 211.185867,164.358948 205.357391,171.501770 
	C194.340988,167.411209 183.798660,163.551819 173.256332,159.692413 
	C175.579117,164.993927 182.585052,167.995987 204.068268,174.074051 
M147.872116,178.736023 
	C149.194763,179.965988 150.517410,181.195938 151.840057,182.425903 
	C152.260284,182.153229 152.680511,181.880554 153.100754,181.607895 
	C152.760498,180.538513 152.695526,179.242798 152.033676,178.437881 
	C148.675003,174.353256 145.229706,170.332901 141.641495,166.450150 
	C140.968353,165.721756 139.507111,165.721664 138.409561,165.385483 
	C138.707153,166.522064 138.690475,167.907288 139.358078,168.751175 
	C141.920013,171.989609 144.701447,175.054398 147.872116,178.736023 
z"/>
<path fill="#060606" opacity="1.000000" stroke="none" 
	d="
M165.981964,79.137749 
	C165.373764,79.996620 164.765579,80.855492 163.530426,81.822754 
	C152.279602,80.714249 141.655731,79.497360 130.607895,78.159149 
	C124.290382,77.600929 118.396835,77.164040 112.086182,76.696220 
	C112.891998,79.371201 113.504135,81.403214 114.222336,83.787331 
	C119.174332,78.826462 125.001938,78.880821 131.396011,79.941376 
	C140.169815,83.415260 148.568100,86.784668 156.966400,90.154083 
	C155.950516,91.373482 154.934631,92.592880 153.717041,93.682144 
	C151.902847,92.116562 150.290329,90.681122 148.677826,89.245674 
	C148.159882,89.518433 147.641922,89.791183 147.123978,90.063934 
	C147.123978,94.091316 147.123978,98.118690 147.123978,102.146057 
	C140.445038,110.333046 133.766113,118.520035 126.607262,126.551193 
	C122.393600,121.207932 118.659859,116.020500 114.914177,110.816467 
	C108.436447,113.150833 108.436447,113.150833 103.617233,107.765877 
	C103.199448,110.238762 102.289726,112.078262 102.751099,113.459915 
	C106.093315,123.468674 109.712349,133.384995 113.243767,143.330566 
	C112.722023,144.166351 112.200272,145.002121 111.227325,145.656586 
	C106.564041,134.900299 102.351959,124.325317 98.325661,114.216805 
	C97.830452,115.417747 97.146660,117.076027 96.011757,119.828300 
	C92.663841,112.384438 86.546829,116.316002 82.309097,113.835838 
	C81.945892,116.272469 81.654037,118.230408 81.362190,120.188347 
	C80.747643,120.288429 80.133095,120.388512 79.518555,120.488594 
	C78.058060,116.602310 76.597572,112.716026 75.137077,108.829735 
	C73.860130,110.823448 73.577652,112.563499 73.267174,114.298553 
	C71.832977,122.313087 70.497704,130.348236 68.854095,138.319733 
	C68.555931,139.765823 66.983734,140.949234 65.683128,142.013916 
	C66.437233,135.783386 67.644264,129.813126 68.537956,123.796326 
	C69.337578,118.412888 69.791794,112.978134 70.398415,107.566017 
	C66.057381,112.737717 61.450127,116.389023 55.321144,114.560005 
	C50.905621,113.242317 48.175205,114.320808 45.302986,117.037224 
	C45.981613,112.873886 46.660244,108.710548 47.662266,104.660881 
	C49.050941,106.447762 50.116226,108.120979 51.594898,110.443497 
	C52.059803,106.990494 52.383350,104.587395 52.852619,101.875008 
	C53.841339,96.871735 56.112953,93.825478 61.758259,94.670372 
	C61.604889,94.079712 61.451519,93.489052 61.298145,92.898399 
	C57.925613,93.246826 54.553078,93.595253 51.180542,93.943680 
	C51.441849,92.844849 51.703148,91.746017 52.445419,90.325302 
	C56.254623,90.033928 59.582859,90.064423 62.971214,90.325043 
	C63.193523,90.210869 63.355709,89.866585 63.569077,89.162872 
	C63.152470,80.683006 67.265564,75.251038 74.068573,71.662582 
	C81.742073,67.614960 90.094696,66.198601 98.623589,67.182251 
	C101.887154,67.558647 104.952553,69.676117 108.101341,71.016411 
	C109.980904,71.816460 111.793068,73.182709 113.728065,73.378113 
	C125.763657,74.593567 137.825424,75.549805 150.231964,76.738037 
	C155.717606,77.635292 160.849777,78.386520 165.981964,79.137749 
M93.887199,106.273315 
	C94.252861,103.890465 94.618523,101.507614 94.981339,99.143272 
	C101.449615,101.224854 105.325706,100.575974 106.402824,96.944221 
	C107.392853,93.606094 105.114761,92.027641 102.479210,91.196838 
	C98.127953,89.825180 95.137520,92.130234 93.572281,97.811852 
	C90.844330,94.422165 87.791435,94.109840 84.666428,97.059883 
	C82.075752,99.505508 82.186668,104.851913 84.849274,107.447968 
	C87.829620,110.353828 90.733116,109.880402 93.887199,106.273315 
M86.221420,81.893272 
	C87.485489,81.123405 89.014542,80.584328 89.941086,79.520500 
	C90.919777,78.396790 91.324188,76.772911 91.979469,75.367523 
	C90.601501,74.778625 89.034012,73.440628 87.878960,73.732857 
	C83.314812,74.887596 78.766090,76.293594 74.462822,78.179512 
	C73.072746,78.788719 72.453499,81.156784 71.481636,82.720261 
	C73.319389,83.370575 75.225716,84.696495 76.979393,84.518486 
	C79.866989,84.225395 82.655777,82.958977 86.221420,81.893272 
M110.183990,101.504112 
	C108.775162,103.981422 105.330406,106.370964 110.048119,109.221573 
	C111.230225,108.613571 112.515884,107.952301 113.939201,107.220230 
	C113.242729,104.840027 112.600616,102.645592 111.958496,100.451141 
	C111.518501,100.607384 111.078499,100.763626 110.183990,101.504112 
z"/>
<path fill="#030303" opacity="1.000000" stroke="none" 
	d="
M165.827835,151.169556 
	C167.715454,153.525269 169.603088,155.880981 171.490707,158.236679 
	C171.248718,158.613647 171.006729,158.990616 170.764725,159.367584 
	C169.749817,159.012115 168.243088,158.966812 167.793900,158.254562 
	C161.287369,147.937653 150.216171,143.944809 140.411453,138.175674 
	C137.859924,136.674347 135.571335,134.726120 132.850006,132.728836 
	C136.573990,127.211014 140.479218,121.840584 144.676712,116.709221 
	C150.875092,109.131821 157.281357,101.724464 164.137482,94.551727 
	C165.087082,94.174873 165.498306,93.491005 165.900558,92.600731 
	C165.891602,92.394333 166.066177,92.019852 166.066177,92.019852 
	C166.066177,92.019852 166.004807,92.000946 166.455566,91.970512 
	C178.814438,93.092354 190.722565,94.244637 202.630676,95.396912 
	C202.747803,94.836807 202.864914,94.276711 202.982025,93.716606 
	C193.495804,88.469574 182.998734,86.038269 172.493378,83.630066 
	C173.007965,82.793022 173.522552,81.955971 174.733551,81.039642 
	C179.772339,82.059845 184.181244,82.951370 188.439590,84.313538 
	C193.319336,85.874489 198.263870,87.473427 202.775482,89.830574 
	C204.674103,90.822540 205.535751,93.799301 206.868805,95.873802 
	C204.705902,96.744385 202.569168,98.253754 200.374298,98.343620 
	C196.591446,98.498505 192.773422,97.759087 188.968353,97.414955 
	C182.144730,96.797829 175.319778,96.195541 168.495377,95.587059 
	C168.368240,96.050545 168.241089,96.514030 168.113953,96.977516 
	C180.059341,104.651657 191.847427,112.589020 204.028976,119.867950 
	C208.774796,122.703735 214.406891,124.056305 219.635284,126.084480 
	C218.663483,132.969223 217.691681,139.853958 216.543274,146.986237 
	C203.893158,155.110336 190.396713,155.567474 176.463974,152.675644 
	C173.379272,152.035400 170.341202,151.170502 166.629852,150.227386 
	C165.709518,150.127426 165.440994,150.209137 165.172470,150.290848 
	C165.390915,150.583755 165.609375,150.876663 165.827835,151.169556 
M171.833435,109.135803 
	C173.083786,104.351631 171.564377,101.247269 166.361572,100.040359 
	C165.348587,106.441010 164.882568,112.454391 169.888397,117.961731 
	C170.542435,115.051521 171.113098,112.512390 171.833435,109.135803 
M185.353500,117.965103 
	C185.011673,122.583893 186.315445,126.607635 189.529816,130.330536 
	C193.478287,117.592598 193.355606,116.966911 186.234940,113.401955 
	C185.966751,114.697044 185.709381,115.939850 185.353500,117.965103 
M209.781708,127.640182 
	C208.595825,126.599319 207.409943,125.558456 206.224060,124.517586 
	C205.752686,124.819809 205.281311,125.122040 204.809952,125.424263 
	C205.672333,128.250778 206.534729,131.077286 207.397110,133.903809 
	C207.800964,133.810516 208.204803,133.717239 208.608658,133.623947 
	C208.951370,131.883163 209.294098,130.142395 209.781708,127.640182 
z"/>
<path fill="#FCFBFB" opacity="1.000000" stroke="none" 
	d="
M149.878510,76.592003 
	C137.825424,75.549805 125.763657,74.593567 113.728065,73.378113 
	C111.793068,73.182709 109.980904,71.816460 108.101341,71.016411 
	C104.952553,69.676117 101.887154,67.558647 98.623589,67.182251 
	C90.094696,66.198601 81.742073,67.614960 74.068573,71.662582 
	C67.265564,75.251038 63.152470,80.683006 63.413078,89.301476 
	C63.205906,89.799507 62.911095,90.094925 62.911095,90.094925 
	C59.582859,90.064423 56.254623,90.033928 52.540779,89.993668 
	C60.404423,73.207176 72.051605,59.581665 88.242477,49.847885 
	C116.981880,32.570042 155.934479,34.212448 182.963470,54.033119 
	C184.949280,55.489346 185.447662,56.475945 182.717072,58.194336 
	C159.206894,57.068474 137.018799,60.998203 115.017784,66.366997 
	C114.060310,66.600639 113.383553,67.984627 112.576019,68.832764 
	C113.711876,69.111145 114.929901,69.803047 115.969391,69.596481 
	C120.517792,68.692657 124.983475,67.368469 129.535385,66.487183 
	C146.348022,63.232124 163.235123,60.635864 180.456909,61.570885 
	C179.092041,63.182617 177.727173,64.794350 175.744644,66.685562 
	C167.985153,68.395744 160.808640,69.681870 153.730835,71.379539 
	C152.321213,71.717651 151.289139,73.629883 150.026062,75.259521 
	C149.938934,75.999199 149.908722,76.295601 149.878510,76.592003 
z"/>
<path fill="#FDFDFD" opacity="1.000000" stroke="none" 
	d="
M65.999695,142.253922 
	C66.983734,140.949234 68.555931,139.765823 68.854095,138.319733 
	C70.497704,130.348236 71.832977,122.313087 73.267174,114.298553 
	C73.577652,112.563499 73.860130,110.823448 75.137077,108.829735 
	C76.597572,112.716026 78.058060,116.602310 79.518555,120.488594 
	C80.133095,120.388512 80.747643,120.288429 81.362190,120.188347 
	C81.654037,118.230408 81.945892,116.272469 82.309097,113.835838 
	C86.546829,116.316002 92.663841,112.384438 96.011757,119.828300 
	C97.146660,117.076027 97.830452,115.417747 98.325661,114.216805 
	C102.351959,124.325317 106.564041,134.900299 110.957062,145.788177 
	C99.136490,160.972427 87.134972,175.843781 74.909332,190.992859 
	C66.990807,183.787704 60.270340,176.362198 56.016964,166.402008 
	C59.433983,159.687378 62.806370,153.683136 65.885887,147.532288 
	C66.499123,146.307434 65.992027,144.521652 66.003113,142.809387 
	C66.004677,142.624222 65.999695,142.253922 65.999695,142.253922 
z"/>
<path fill="#FCFAFA" opacity="1.000000" stroke="none" 
	d="
M219.709625,125.660080 
	C214.406891,124.056305 208.774796,122.703735 204.028976,119.867950 
	C191.847427,112.589020 180.059341,104.651657 168.113953,96.977516 
	C168.241089,96.514030 168.368240,96.050545 168.495377,95.587059 
	C175.319778,96.195541 182.144730,96.797829 188.968353,97.414955 
	C192.773422,97.759087 196.591446,98.498505 200.374298,98.343620 
	C202.569168,98.253754 204.705902,96.744385 206.868805,95.873802 
	C205.535751,93.799301 204.674103,90.822540 202.775482,89.830574 
	C198.263870,87.473427 193.319336,85.874489 188.439590,84.313538 
	C184.181244,82.951370 179.772339,82.059845 174.998718,80.880966 
	C179.101151,75.425987 183.652390,70.065048 188.153793,64.662575 
	C189.064087,63.570045 189.785843,62.320435 190.943558,60.635147 
	C209.865234,77.979332 219.114441,99.645752 219.709625,125.660080 
z"/>
<path fill="#FCFBFB" opacity="1.000000" stroke="none" 
	d="
M65.683128,142.013916 
	C65.999695,142.253922 66.004677,142.624222 65.656616,142.888626 
	C64.295494,144.563278 63.134190,145.891113 62.296257,147.398697 
	C59.416519,152.579803 56.649952,157.823822 53.840256,163.043854 
	C46.116165,148.947769 44.217087,133.729889 45.230972,117.501068 
	C48.175205,114.320808 50.905621,113.242317 55.321144,114.560005 
	C61.450127,116.389023 66.057381,112.737717 70.398415,107.566017 
	C69.791794,112.978134 69.337578,118.412888 68.537956,123.796326 
	C67.644264,129.813126 66.437233,135.783386 65.683128,142.013916 
z"/>
<path fill="#FAF8F8" opacity="1.000000" stroke="none" 
	d="
M113.539124,143.164688 
	C109.712349,133.384995 106.093315,123.468674 102.751099,113.459915 
	C102.289726,112.078262 103.199448,110.238762 103.617233,107.765877 
	C108.436447,113.150833 108.436447,113.150833 114.914177,110.816467 
	C118.659859,116.020500 122.393600,121.207932 126.330307,126.690231 
	C122.300354,132.322998 118.067421,137.660904 113.539124,143.164688 
z"/>
<path fill="#141414" opacity="1.000000" stroke="none" 
	d="
M180.614349,61.386448 
	C163.235123,60.635864 146.348022,63.232124 129.535385,66.487183 
	C124.983475,67.368469 120.517792,68.692657 115.969391,69.596481 
	C114.929901,69.803047 113.711876,69.111145 112.576019,68.832764 
	C113.383553,67.984627 114.060310,66.600639 115.017784,66.366997 
	C137.018799,60.998203 159.206894,57.068474 182.452332,58.453064 
	C182.188629,59.467339 181.480194,60.334675 180.614349,61.386448 
z"/>
<path fill="#F4F3F3" opacity="1.000000" stroke="none" 
	d="
M172.208099,83.769760 
	C182.998734,86.038269 193.495804,88.469574 202.982025,93.716606 
	C202.864914,94.276711 202.747803,94.836807 202.630676,95.396912 
	C190.722565,94.244637 178.814438,93.092354 166.456787,92.002594 
	C167.979111,89.346558 169.950974,86.628006 172.208099,83.769760 
z"/>
<path fill="#F4F3F3" opacity="1.000000" stroke="none" 
	d="
M157.259628,89.983017 
	C148.568100,86.784668 140.169815,83.415260 131.401550,79.681816 
	C131.031662,78.972015 131.031769,78.626251 131.031860,78.280479 
	C141.655731,79.497360 152.279602,80.714249 163.276459,82.019913 
	C161.617233,84.676437 159.585037,87.244194 157.259628,89.983017 
z"/>
<path fill="#141414" opacity="1.000000" stroke="none" 
	d="
M204.305984,173.874146 
	C182.585052,167.995987 175.579117,164.993927 173.256332,159.692413 
	C183.798660,163.551819 194.340988,167.411209 205.041916,171.609695 
	C204.981567,172.523926 204.762634,173.099075 204.305984,173.874146 
z"/>
<path fill="#F1EDED" opacity="1.000000" stroke="none" 
	d="
M150.231964,76.738037 
	C149.908722,76.295601 149.938934,75.999199 150.431366,75.357643 
	C158.138458,73.615128 165.383316,72.217766 172.628189,70.820404 
	C170.608582,73.474960 168.588974,76.129517 166.275665,78.960907 
	C160.849777,78.386520 155.717606,77.635292 150.231964,76.738037 
z"/>
<path fill="#141414" opacity="1.000000" stroke="none" 
	d="
M53.903133,163.368561 
	C56.649952,157.823822 59.416519,152.579803 62.296257,147.398697 
	C63.134190,145.891113 64.295494,144.563278 65.655052,143.073792 
	C65.992027,144.521652 66.499123,146.307434 65.885887,147.532288 
	C62.806370,153.683136 59.433983,159.687378 55.952900,166.058563 
	C55.149555,165.480408 54.557781,164.586838 53.903133,163.368561 
z"/>
<path fill="#141414" opacity="1.000000" stroke="none" 
	d="
M118.059265,149.871307 
	C123.860405,153.841278 129.496780,157.851379 134.996979,162.040268 
	C135.925659,162.747528 136.267303,164.225571 136.880173,165.347504 
	C135.719269,165.202972 134.285675,165.445679 133.441528,164.851303 
	C127.789124,160.871078 122.262215,156.712631 116.416748,152.372589 
	C116.708839,151.412643 117.278770,150.692108 118.059265,149.871307 
z"/>
<path fill="#141414" opacity="1.000000" stroke="none" 
	d="
M172.801270,70.603043 
	C165.383316,72.217766 158.138458,73.615128 150.488281,74.914368 
	C151.289139,73.629883 152.321213,71.717651 153.730835,71.379539 
	C160.808640,69.681870 167.985153,68.395744 175.539139,66.961403 
	C174.958984,68.100395 173.966675,69.243042 172.801270,70.603043 
z"/>
<path fill="#F4F3F3" opacity="1.000000" stroke="none" 
	d="
M147.429871,102.008774 
	C147.123978,98.118690 147.123978,94.091316 147.123978,90.063934 
	C147.641922,89.791183 148.159882,89.518433 148.677826,89.245674 
	C150.290329,90.681122 151.902847,92.116562 153.467163,93.935822 
	C151.524567,96.836906 149.630173,99.354187 147.429871,102.008774 
z"/>
<path fill="#DCDCDC" opacity="1.000000" stroke="none" 
	d="
M50.986969,94.286980 
	C54.553078,93.595253 57.925613,93.246826 61.298145,92.898399 
	C61.451519,93.489052 61.604889,94.079712 61.758259,94.670372 
	C56.112953,93.825478 53.841339,96.871735 52.404610,101.840233 
	C50.614639,102.080154 49.418400,102.045570 48.222157,102.010979 
	C49.079235,99.550743 49.936314,97.090515 50.986969,94.286980 
z"/>
<path fill="#E9E9E9" opacity="1.000000" stroke="none" 
	d="
M48.113602,102.347198 
	C49.418400,102.045570 50.614639,102.080154 52.258888,102.149521 
	C52.383350,104.587395 52.059803,106.990494 51.594898,110.443497 
	C50.116226,108.120979 49.050941,106.447762 47.905617,104.427933 
	C47.885391,103.615349 47.945217,103.149384 48.113602,102.347198 
z"/>
<path fill="#131212" opacity="1.000000" stroke="none" 
	d="
M165.909515,92.807129 
	C165.498306,93.491005 165.087082,94.174873 164.460175,94.692337 
	C164.566895,94.416618 164.825470,94.222260 165.222305,93.513123 
	C165.586105,92.991310 165.747818,92.899223 165.909515,92.807129 
z"/>
<path fill="#F4F3F3" opacity="1.000000" stroke="none" 
	d="
M165.900558,92.600731 
	C165.747818,92.899223 165.586105,92.991310 165.210663,93.264107 
	C165.205582,92.843285 165.414246,92.241768 165.844543,91.830048 
	C166.066177,92.019852 165.891602,92.394333 165.900558,92.600731 
z"/>
<path fill="#E9E9E9" opacity="1.000000" stroke="none" 
	d="
M357.982971,172.014404 
	C361.544281,173.068985 363.364563,179.631104 360.780090,181.286942 
	C359.777039,181.929596 357.716492,180.921738 356.137665,180.665741 
	C356.610138,177.794266 357.082611,174.922791 357.982971,172.014404 
z"/>
<path fill="#F3F3F3" opacity="1.000000" stroke="none" 
	d="
M263.133698,166.192993 
	C263.133698,164.256119 263.133698,162.794189 263.133698,161.382782 
	C267.471802,160.303497 269.611298,161.377548 269.385773,165.850540 
	C269.201874,169.498749 269.189972,173.172318 269.389221,176.818939 
	C269.636047,181.335999 267.830353,182.924072 263.133698,181.533401 
	C263.133698,176.589172 263.133698,171.628555 263.133698,166.192993 
z"/>
<path fill="#E5E5E5" opacity="1.000000" stroke="none" 
	d="
M349.269104,125.731949 
	C348.496674,125.997101 348.041534,126.020943 347.244690,126.059166 
	C342.817230,123.437981 345.123474,119.737030 345.446625,116.438530 
	C345.490173,115.994217 347.149261,115.294197 347.922058,115.440819 
	C348.872833,115.621201 350.425537,116.573792 350.419159,117.178879 
	C350.389832,119.952087 349.906586,122.720497 349.269104,125.731949 
z"/>
<path fill="#EBEBEB" opacity="1.000000" stroke="none" 
	d="
M319.949310,77.975616 
	C316.689117,76.556221 315.197449,70.183495 317.570496,68.764465 
	C318.571442,68.165939 320.559875,69.218849 322.099457,69.521072 
	C321.532562,72.329964 320.965668,75.138855 319.949310,77.975616 
z"/>
<path fill="#DCDCDC" opacity="1.000000" stroke="none" 
	d="
M267.098114,60.146694 
	C267.225586,63.440701 266.664368,65.650986 262.619781,64.770576 
	C262.619781,62.446171 262.619781,60.063084 262.619781,56.021919 
	C264.546570,57.618492 265.816162,58.670486 267.098114,60.146694 
z"/>
<path fill="#E2E2E2" opacity="1.000000" stroke="none" 
	d="
M319.892792,121.697517 
	C318.818909,123.233376 317.747009,124.362175 316.675140,125.490974 
	C315.759064,124.204292 314.711578,122.986511 313.984985,121.600502 
	C313.645813,120.953453 313.641510,119.825714 313.987122,119.187607 
	C314.734009,117.808586 315.804718,116.604988 316.742981,115.329628 
	C317.792114,116.491493 318.981293,117.561935 319.826752,118.856796 
	C320.204895,119.435936 319.893341,120.465378 319.892792,121.697517 
z"/>
<path fill="#141414" opacity="1.000000" stroke="none" 
	d="
M147.636551,178.459991 
	C144.701447,175.054398 141.920013,171.989609 139.358078,168.751175 
	C138.690475,167.907288 138.707153,166.522064 138.409561,165.385483 
	C139.507111,165.721664 140.968353,165.721756 141.641495,166.450150 
	C145.229706,170.332901 148.675003,174.353256 152.033676,178.437881 
	C152.695526,179.242798 152.760498,180.538513 153.100754,181.607895 
	C152.680511,181.880554 152.260284,182.153229 151.840057,182.425903 
	C150.517410,181.195938 149.194763,179.965988 147.636551,178.459991 
z"/>
<path fill="#F8F8F8" opacity="1.000000" stroke="none" 
	d="
M93.650085,106.591507 
	C90.733116,109.880402 87.829620,110.353828 84.849274,107.447968 
	C82.186668,104.851913 82.075752,99.505508 84.666428,97.059883 
	C87.791435,94.109840 90.844330,94.422165 93.572281,97.811852 
	C95.137520,92.130234 98.127953,89.825180 102.479210,91.196838 
	C105.114761,92.027641 107.392853,93.606094 106.402824,96.944221 
	C105.325706,100.575974 101.449615,101.224854 94.981339,99.143272 
	C94.618523,101.507614 94.252861,103.890465 93.650085,106.591507 
z"/>
<path fill="#F4F3F3" opacity="1.000000" stroke="none" 
	d="
M85.853821,81.998062 
	C82.655777,82.958977 79.866989,84.225395 76.979393,84.518486 
	C75.225716,84.696495 73.319389,83.370575 71.481636,82.720261 
	C72.453499,81.156784 73.072746,78.788719 74.462822,78.179512 
	C78.766090,76.293594 83.314812,74.887596 87.878960,73.732857 
	C89.034012,73.440628 90.601501,74.778625 91.979469,75.367523 
	C91.324188,76.772911 90.919777,78.396790 89.941086,79.520500 
	C89.014542,80.584328 87.485489,81.123405 85.853821,81.998062 
z"/>
<path fill="#DCDCDC" opacity="1.000000" stroke="none" 
	d="
M130.607895,78.159149 
	C131.031769,78.626251 131.031662,78.972015 131.026031,79.577347 
	C125.001938,78.880821 119.174332,78.826462 114.222336,83.787331 
	C113.504135,81.403214 112.891998,79.371201 112.086182,76.696220 
	C118.396835,77.164040 124.290382,77.600929 130.607895,78.159149 
z"/>
<path fill="#E9E9E9" opacity="1.000000" stroke="none" 
	d="
M110.411240,101.211990 
	C111.078499,100.763626 111.518501,100.607384 111.958496,100.451149 
	C112.600616,102.645592 113.242729,104.840027 113.939201,107.220230 
	C112.515884,107.952301 111.230225,108.613571 110.048119,109.221573 
	C105.330406,106.370964 108.775162,103.981422 110.411240,101.211990 
z"/>
<path fill="#FCFBFB" opacity="1.000000" stroke="none" 
	d="
M63.361900,89.660904 
	C63.355709,89.866585 63.193523,90.210869 62.971214,90.325043 
	C62.911095,90.094925 63.205906,89.799507 63.361900,89.660904 
z"/>
<path fill="#F3F3F3" opacity="1.000000" stroke="none" 
	d="
M171.758591,109.554535 
	C171.113098,112.512390 170.542435,115.051521 169.888397,117.961731 
	C164.882568,112.454391 165.348587,106.441010 166.361572,100.040359 
	C171.564377,101.247269 173.083786,104.351631 171.758591,109.554535 
z"/>
<path fill="#EBEBEB" opacity="1.000000" stroke="none" 
	d="
M185.402756,117.573883 
	C185.709381,115.939850 185.966751,114.697044 186.234940,113.401955 
	C193.355606,116.966911 193.478287,117.592598 189.529816,130.330536 
	C186.315445,126.607635 185.011673,122.583893 185.402756,117.573883 
z"/>
<path fill="#D3D3D3" opacity="1.000000" stroke="none" 
	d="
M209.709259,128.020905 
	C209.294098,130.142395 208.951370,131.883163 208.608658,133.623947 
	C208.204803,133.717239 207.800964,133.810516 207.397110,133.903809 
	C206.534729,131.077286 205.672333,128.250778 204.809952,125.424263 
	C205.281311,125.122040 205.752686,124.819809 206.224060,124.517586 
	C207.409943,125.558456 208.595825,126.599319 209.709259,128.020905 
z"/>
<path fill="#FDFCFC" opacity="1.000000" stroke="none" 
	d="
M166.007019,150.966095 
	C165.609375,150.876663 165.390915,150.583755 165.172470,150.290848 
	C165.440994,150.209137 165.709518,150.127426 166.231628,150.178009 
	C166.385559,150.461044 166.285889,150.611832 166.007019,150.966095 
z"/>
</svg>